<svg xmlns="http://www.w3.org/2000/svg" width="30" height="30" viewBox="0 0 30 30">
    <defs>
        <style>
            .cls-2{fill:#020202}
        </style>
    </defs>
    <g id="brunch_icon_30x30" transform="translate(14677 19554)">
        <circle id="타원_5" cx="15" cy="15" r="15" fill="none" transform="translate(-14677 -19554)"/>
        <g id="그룹_41" transform="translate(-14671.167 -19551.85)">
            <path id="패스_74" d="M1632.417 1490.418a1.766 1.766 0 0 0-.506.249 19.609 19.609 0 0 0-2.059 1.695 31.909 31.909 0 0 0-4.384 6.173c-2.266 3.892-4.47 7.82-6.7 11.732-.2.359-.419.713-.643 1.095l-1.028-.534-.241.428.947.665c-.5.943-.937 1.644-1.425 2.6a.694.694 0 0 0-.112.337c.013.143.277.017.277.017a17.268 17.268 0 0 0 1.762-.925c.256-.228.242-.773.385-1.121a.949.949 0 0 1 .276-.357.855.855 0 0 1 .262-.169 1.171 1.171 0 0 1 .346-.024c.253-.01.506-.028.758-.053q.556-.053 1.108-.148.691-.116 1.37-.292a15.379 15.379 0 0 0 1.543-.486q.331-.123.654-.263.168-.072.335-.149l.164-.077a.968.968 0 0 1 .164-.08 13.239 13.239 0 0 0 3.672-2.617 5.4 5.4 0 0 0 1.593-2.994 1.833 1.833 0 0 0-2.045-2.357 4.93 4.93 0 0 0-1.493.311 12.442 12.442 0 0 0-4.107 2.833c-.322.3-.636.61-.955.915a.545.545 0 0 1 .081-.337 30.8 30.8 0 0 1 4.01-5.545c.621-.677 1.276-1.324 1.868-2.026a1.527 1.527 0 0 0 .352-1.814l.372-.217a9.141 9.141 0 0 0 3.7-3.874 8.047 8.047 0 0 0 .649-1.823c.144-.678-.301-1.002-.95-.768zm-6.837 14.571c.475-.33.991-.6 1.5-.886a3.532 3.532 0 0 1 .633-.266c1.092-.353 1.61.1 1.386 1.215a6.468 6.468 0 0 1-2 3.322 11.833 11.833 0 0 1-6.85 3.1c-.187.027-.375.047-.562.068a1.033 1.033 0 0 1-.171-.014c.107-.166.195-.314.291-.454a23.339 23.339 0 0 1 5.773-6.085zm5.928-12.054a11.5 11.5 0 0 1-3.764 3.971.364.364 0 0 0-.084.318c.044.185.277.409.1.8a23.576 23.576 0 0 1-2.11 2.273s1.393-2.533 1.89-3.219c.235-.324 1.009-1.431 1.892-2.562a25.349 25.349 0 0 1 2.62-2.99 6.782 6.782 0 0 1-.544 1.409z" class="cls-2" transform="translate(-1616.264 -1490.342)"/>
            <path id="패스_75" d="M1656.729 1775.872h-14.7a.027.027 0 0 1-.021-.042l.211-.343a.024.024 0 0 1 .021-.012h14.7a.028.028 0 0 1 .021.043l-.212.343a.023.023 0 0 1-.02.011z" class="cls-2" transform="translate(-1639.636 -1751.305)"/>
        </g>
    </g>
</svg>
