<svg xmlns="http://www.w3.org/2000/svg" width="64" height="64" viewBox="0 0 64 64">
    <defs>
        <style>
            .cls-1,.cls-2{fill:#fff;stroke:#333;stroke-linecap:round;stroke-linejoin:round}.cls-2{fill:#d2c9f2}
        </style>
    </defs>
    <g id="what-we-do_icon_03" transform="translate(-372 -1628)">
        <g id="그룹_123" transform="translate(-173.93 1318.986)">
            <g id="그룹_118" transform="translate(552.009 330.669)">
                <path id="패스_479" d="M611.891 376.161l6.743-1.661 6.192 7.352-4.453 7.807-10.173-2.553z" class="cls-1" transform="translate(-584.453 -362.929)"/>
                <path id="패스_480" d="M604.876 387.05c-3.53-2.669-7.1-5.291-10.584-8.024l-.368.074.231-2.04-9.576-2.559-6.192 7.352 4.453 7.807 1.8-.451c.253.187.516.376.8.574 2.707 1.881 5.3 3.961 7.928 5.956.679.517 1.352 1.042 2.033 1.557a1.736 1.736 0 1 0 2.094-2.769l.778.588a1.736 1.736 0 1 0 2.094-2.77l.649.491a1.736 1.736 0 1 0 2.094-2.77l-.325-.245a1.736 1.736 0 0 0 2.094-2.77z" class="cls-1" transform="translate(-566.717 -362.929)"/>
                <path id="선_40" d="M2.599 1.964L0 0" class="cls-1" transform="translate(34.778 25.483)"/>
                <path id="선_41" d="M2.611 1.974L0 0" class="cls-1" transform="translate(31.198 27.58)"/>
                <path id="선_42" d="M1.273 0.962L0 0" class="cls-1" transform="translate(29.503 30.634)"/>
                <g id="그룹_117" transform="translate(14.607 24.231)">
                    <path id="패스_481" d="M592.746 412.485a1.921 1.921 0 0 1-2.676.471 1.921 1.921 0 0 1-.471-2.676l1.943-2.772a1.922 1.922 0 0 1 2.676-.471 1.921 1.921 0 0 1 .471 2.676z" class="cls-1" transform="translate(-587.382 -405.108)"/>
                    <path id="패스_482" d="M599.93 417.5a1.825 1.825 0 0 1-2.53.5 1.826 1.826 0 0 1-.492-2.534l1.425-2.111a1.827 1.827 0 0 1 2.535-.492 1.826 1.826 0 0 1 .492 2.535z" class="cls-1" transform="translate(-591.475 -408.374)"/>
                    <path id="패스_483" d="M587.956 407.318a1.637 1.637 0 0 1-2.3.29 1.637 1.637 0 0 1-.29-2.3l1.212-1.563a1.636 1.636 0 0 1 2.3-.29 1.636 1.636 0 0 1 .29 2.3z" class="cls-1" transform="translate(-585.026 -403.115)"/>
                    <path id="패스_484" d="M608.15 421a1.493 1.493 0 0 1-2.07.415 1.492 1.492 0 0 1-.415-2.07l.735-1.1a1.492 1.492 0 0 1 2.069-.415 1.492 1.492 0 0 1 .415 2.07z" class="cls-1" transform="translate(-596.395 -411.179)"/>
                </g>
                <path id="패스_486" d="M609.714 382.238l-4.426 2.462a2.378 2.378 0 0 1-3.279-.754 2.379 2.379 0 0 1 .754-3.279l3.564-2.231.67-.42 1.18-.367" class="cls-1" transform="translate(-579.686 -364.685)"/>
                <path id="사각형_411" d="M0 0H15.5V12.477H0z" class="cls-2" transform="rotate(-45.001 29.26 -33.218)"/>
                <path id="패스_487" d="M562.91 368.881l8.823-8.823-10.9-10.365-8.823 8.823z" class="cls-2" transform="translate(-552.009 -349.097)"/>
            </g>
            <path id="패스_488" fill="#cbddff" stroke="#333" stroke-linecap="round" stroke-linejoin="round" d="M607.988 328.787v-2.958l-2.38-.34a8.423 8.423 0 0 0-1.142-2.75l1.445-1.926-2.092-2.091-1.926 1.444a8.423 8.423 0 0 0-2.75-1.142l-.34-2.38h-2.958l-.34 2.38a8.418 8.418 0 0 0-2.75 1.142l-1.926-1.444-2.092 2.091 1.444 1.926a8.431 8.431 0 0 0-1.142 2.75l-2.38.34v2.958l2.38.34a8.424 8.424 0 0 0 1.142 2.75l-1.444 1.926 2.092 2.092 1.926-1.444a8.428 8.428 0 0 0 2.75 1.142l.34 2.38h2.955l.34-2.38a8.433 8.433 0 0 0 2.75-1.142l1.926 1.444 2.092-2.092-1.445-1.926a8.416 8.416 0 0 0 1.142-2.75zm-10.665 2.994a4.473 4.473 0 1 1 4.473-4.473 4.473 4.473 0 0 1-4.473 4.473z" transform="translate(-19.32)"/>
        </g>
        <path id="사각형_420" fill="none" d="M0 0H64V64H0z" transform="translate(372 1628)"/>
    </g>
</svg>
