<svg xmlns="http://www.w3.org/2000/svg" width="64" height="64" viewBox="0 0 64 64">
    <defs>
        <style>
            .cls-1,.cls-4{fill:#fff}.cls-1{stroke:#142040}.cls-1,.cls-2,.cls-3,.cls-4,.cls-5{stroke-linecap:round;stroke-linejoin:round}.cls-2{fill:#cbddff}.cls-2,.cls-3,.cls-4,.cls-5{stroke:#333}.cls-3{fill:none}.cls-5{fill:#d2c9f2}
        </style>
    </defs>
    <g id="what-we-do_icon_04" transform="translate(-678 -1628)">
        <g id="그룹_121" transform="translate(127.02 667.646)">
            <path id="패스_451" d="M586.167 994.354l-1.858 1.854a6.668 6.668 0 0 1-.046.971 9.323 9.323 0 0 1-2.582-2.26l.878-.879 1.181-1.18.41-.41a1.44 1.44 0 0 1 1.962-.1 1.386 1.386 0 0 1 .055 2.004z" class="cls-1" transform="translate(-12.711 -14.564)"/>
            <path id="패스_452" d="M596.064 974.534a9.4 9.4 0 0 1-9.4 9.4 9.3 9.3 0 0 1-4.795-1.32 6.667 6.667 0 0 0 .046-.971l1.858-1.854a1.386 1.386 0 0 0-.054-2.009 1.44 1.44 0 0 0-1.962.1l-.41.41-1.181 1.18-.878.879c-.074-.089-.143-.182-.209-.275a9.4 9.4 0 1 1 16.982-5.546z" class="cls-2" transform="translate(-10.32)"/>
            <g id="그룹_110" transform="translate(572.887 971.477)">
                <path id="패스_453" d="M597.233 977.771l-1.513 6.117-1.513-6.117-1.513 6.117-1.513-6.117" class="cls-3" transform="translate(-590.747 -977.771)"/>
                <path id="선_25" d="M0 0L6.921 0" class="cls-3" transform="translate(0 1.569)"/>
            </g>
            <path id="패스_454" d="M575.8 993.617l-1.858 1.854a6.668 6.668 0 0 1-.046.971 6.32 6.32 0 0 1-2.79 4.807 4.8 4.8 0 0 1-2.384 1.084l-3.05 4.083-3.119-2.585 3.464-4.354.712-6.006a1.92 1.92 0 0 1 .778-1.323l2.066-1.5a9.419 9.419 0 0 0 1.533 3.259v.484l.209-.209.878-.879 1.181-1.18.41-.41a1.44 1.44 0 0 1 1.962-.1 1.386 1.386 0 0 1 .054 2.004z" class="cls-4" transform="translate(-2.341 -13.828)"/>
            <path id="사각형_408" d="M0 0H6.108V4.387H0z" class="cls-5" transform="rotate(39.994 -1075.946 1264.496)"/>
            <path id="패스_455" d="M632.59 1012.92l1.858 1.854a6.589 6.589 0 0 0 .046.971 9.307 9.307 0 0 0 2.582-2.26l-.879-.878-1.18-1.181-.41-.41a1.439 1.439 0 0 0-1.962-.1 1.386 1.386 0 0 0-.055 2.004z" class="cls-1" transform="translate(-40.086 -24.628)"/>
            <path id="패스_456" d="M606.238 993.1a9.4 9.4 0 0 0 9.4 9.4 9.305 9.305 0 0 0 4.795-1.32 6.6 6.6 0 0 1-.046-.971l-1.858-1.854a1.386 1.386 0 0 1 .055-2.009 1.439 1.439 0 0 1 1.962.1l.41.41 1.18 1.181.879.878c.073-.089.143-.182.209-.275a9.4 9.4 0 1 0-16.982-5.546z" class="cls-2" transform="translate(-26.021 -10.063)"/>
            <path id="패스_457" d="M602.48 1045.5l.246 2.613a6.657 6.657 0 0 0-.584.778 9.319 9.319 0 0 0 3.43-.092l-.115-1.237-.155-1.662-.054-.578a1.439 1.439 0 0 0-1.444-1.333 1.386 1.386 0 0 0-1.324 1.511z" class="cls-1" transform="translate(-23.801 -42.738)"/>
            <path id="패스_458" d="M586.99 1017.3a9.4 9.4 0 0 0 1.232 13.234 9.3 9.3 0 0 0 4.534 2.045 6.656 6.656 0 0 1 .584-.778l-.246-2.613a1.386 1.386 0 0 1 1.324-1.511 1.439 1.439 0 0 1 1.444 1.333l.054.578.155 1.662.115 1.237c.114-.022.226-.049.336-.078a9.4 9.4 0 1 0-9.532-15.109z" class="cls-2" transform="translate(-14.415 -26.434)"/>
            <path id="패스_459" d="M601.042 1045.5l.246 2.613a6.661 6.661 0 0 0-.584.778 6.317 6.317 0 0 0-.921 5.481 4.8 4.8 0 0 0 1.143 2.356l-.259 5.09h4.051l.113-5.563 3.286-5.078a1.92 1.92 0 0 0 .246-1.515l-.635-2.472a9.41 9.41 0 0 1-3.26 1.529l-.309.373-.027-.295-.115-1.237-.155-1.662-.054-.578a1.439 1.439 0 0 0-1.444-1.333 1.386 1.386 0 0 0-1.322 1.513z" class="cls-4" transform="translate(-22.363 -42.738)"/>
            <path id="사각형_409" d="M0 0H6.108V4.223H0z" class="cls-5" transform="rotate(179.675 290.295 510.595)"/>
            <g id="그룹_111" transform="translate(586.153 980.028)">
                <path id="패스_460" d="M620.148 996.337l1.513 6.123 1.513-6.123 1.513 6.123 1.513-6.123" class="cls-3" transform="translate(-619.714 -996.337)"/>
                <path id="선_26" d="M6.921 0L0 0" class="cls-3" transform="translate(0 1.57)"/>
            </g>
            <g id="그룹_112" transform="translate(576.347 993.745)">
                <path id="패스_461" d="M598.737 1025.122l1.513 6.126 1.513-6.126 1.513 6.126 1.513-6.126" class="cls-3" transform="translate(-598.303 -1025.122)"/>
                <path id="선_27" d="M6.921 0L0 0" class="cls-3" transform="translate(0 1.571)"/>
            </g>
            <path id="패스_462" d="M632.59 1012.184l1.858 1.854a6.587 6.587 0 0 0 .046.971 6.317 6.317 0 0 0 2.79 4.807 4.8 4.8 0 0 0 2.384 1.083l3.05 4.083 3.119-2.585-3.464-4.354-.712-6.006a1.922 1.922 0 0 0-.778-1.323l-2.067-1.5a9.419 9.419 0 0 1-1.532 3.258v.484l-.209-.209-.879-.879-1.18-1.181-.41-.41a1.439 1.439 0 0 0-1.962-.1 1.386 1.386 0 0 0-.054 2.007z" class="cls-4" transform="translate(-40.086 -23.892)"/>
            <path id="사각형_410" d="M0 0H6.108V4.388H0z" class="cls-5" transform="rotate(140.006 122.067 610.146)"/>
        </g>
        <path id="사각형_422" fill="none" d="M0 0H64V64H0z" transform="translate(678 1628)"/>
    </g>
</svg>
